<svg width="25" height="24" viewBox="0 0 25 24" fill="none" xmlns="http://www.w3.org/2000/svg">
<path d="M8.875 21.75H16.375" stroke="#1E1E1E" stroke-width="2" stroke-linecap="round" stroke-linejoin="round"/>
<path d="M12.625 18.75V13.5" stroke="#1E1E1E" stroke-width="2" stroke-linecap="round" stroke-linejoin="round"/>
<path d="M9.625 10.5L12.625 13.5L15.625 10.5" stroke="#1E1E1E" stroke-width="2" stroke-linecap="round" stroke-linejoin="round"/>
<path d="M8.00312 15.6563C7.11153 14.9598 6.38937 14.0703 5.89088 13.0546C5.39239 12.039 5.13054 10.9236 5.12499 9.79219C5.10249 5.72719 8.37999 2.34375 12.4441 2.25C14.0191 2.21185 15.5661 2.67066 16.8656 3.56132C18.1652 4.45198 19.1513 5.72927 19.684 7.21196C20.2166 8.69464 20.2689 10.3074 19.8333 11.8215C19.3977 13.3355 18.4964 14.674 17.2572 15.6469C16.9839 15.8588 16.7624 16.1302 16.6095 16.4404C16.4567 16.7507 16.3765 17.0917 16.375 17.4375V18C16.375 18.1989 16.296 18.3897 16.1553 18.5303C16.0147 18.671 15.8239 18.75 15.625 18.75H9.62499C9.42608 18.75 9.23532 18.671 9.09466 18.5303C8.95401 18.3897 8.87499 18.1989 8.87499 18V17.4375C8.87463 17.0939 8.79592 16.7548 8.64484 16.4462C8.49376 16.1375 8.27429 15.8673 8.00312 15.6563Z" stroke="#343330" stroke-width="2" stroke-linecap="round" stroke-linejoin="round"/>
</svg>
