<svg width="196" height="147" viewBox="0 0 196 147" fill="none" xmlns="http://www.w3.org/2000/svg">
<path d="M104.293 -32.7998C95.8696 -32.2141 83.2549 -30.0385 78.9383 -28.4487C74.454 -26.817 72.9453 -26.1894 69.5087 -24.5159C67.3294 -23.4281 65.2759 -22.3403 64.9825 -22.0475C64.6891 -21.7546 64.27 -21.5036 64.1443 -21.5036C63.9767 -21.5036 63.39 -21.0852 62.8032 -20.5831C60.4563 -18.4494 57.816 -16.483 57.3131 -16.483C57.0617 -16.483 55.8882 -17.4453 54.7567 -18.6168C53.5832 -19.7464 51.8649 -21.2107 50.901 -21.7964C48.2188 -23.5118 43.8603 -25.6874 43.1059 -25.6874C42.7287 -25.6874 42.1839 -25.9384 41.8905 -26.2313C41.22 -26.9007 26.7613 -26.9425 25.8812 -26.2731C25.546 -25.9802 24.6659 -25.6455 23.9115 -25.4782C22.5285 -25.1853 19.0919 -23.47 16.0745 -21.5873C11.7578 -18.8678 6.26772 -12.2156 3.71126 -6.65112C3.20835 -5.5215 2.62162 -4.26636 2.45399 -3.93166C0.358528 0.503162 -0.605384 10.2514 0.400437 17.8659C0.945256 22.217 3.62744 30.2918 4.96854 31.6306C5.09427 31.7561 5.63909 32.7184 6.22582 33.8061C8.447 37.8644 14.901 44.6003 19.0081 47.1106C19.9301 47.6545 20.7683 48.2402 20.894 48.4076C21.2712 48.8678 27.3061 51.6291 29.695 52.3822C30.9522 52.7587 32.3772 53.2608 32.8382 53.4281C33.9278 53.8465 38.8312 54.6414 41.9744 54.9343C43.7345 55.0598 44.4889 55.3108 44.6565 55.8129C44.7823 56.2313 45.1175 57.1099 45.4528 57.8629C46.291 59.7457 46.1653 60.7916 44.8661 62.9672C43.8603 64.6825 42.4773 67.5693 41.5972 69.9123C39.9208 74.4308 39.0407 82.7147 39.6694 88.8648C40.0884 93.2578 40.8009 97.1069 41.4295 98.7804C42.8964 102.546 43.6926 104.429 44.2794 105.684C45.1175 107.357 47.3387 111.248 47.7159 111.541C47.8416 111.667 48.5122 112.587 49.1827 113.633C50.8591 116.185 58.1932 123.507 61.546 126.059C66.4912 129.824 69.0477 131.414 75.7951 135.012C76.1303 135.221 77.9324 136.016 79.7765 136.853C81.6205 137.69 83.4645 138.526 83.8416 138.777C84.2607 138.987 84.8056 139.154 85.0989 139.154C85.3923 139.196 86.3981 139.531 87.3201 139.991C88.2421 140.451 89.3318 140.786 89.7089 140.828C90.0861 140.828 90.5471 140.995 90.6728 141.246C90.7986 141.455 91.4272 141.664 92.0558 141.664C92.6845 141.664 93.7322 141.957 94.4028 142.292C95.0314 142.627 95.8277 142.919 96.121 142.919C96.4144 142.919 97.5879 143.17 98.6775 143.505C103.707 144.928 109.867 146.015 117.285 146.727C122.733 147.271 147.586 146.936 149.346 146.308C150.058 146.057 151.944 145.681 153.537 145.472C157.35 144.928 160.913 144.175 161.793 143.714C162.212 143.505 162.84 143.338 163.176 143.338C163.511 143.338 164.894 143.003 166.193 142.543C167.534 142.125 169.462 141.539 170.51 141.204C172.186 140.702 174.491 139.823 177.006 138.736C177.467 138.526 178.808 137.941 179.939 137.48C181.113 136.978 183.418 135.891 185.094 135.054C186.771 134.175 188.489 133.339 188.95 133.088C189.411 132.878 189.788 132.544 189.788 132.376C189.788 132.167 190.04 132.042 190.375 132.042C190.71 132.042 191.255 131.791 191.548 131.498C191.842 131.205 192.847 130.494 193.769 129.95C194.691 129.406 195.697 128.695 196.033 128.36C196.368 128.025 197.332 127.314 198.254 126.77C199.637 125.891 208.941 116.896 210.114 115.265C212.042 112.629 214.724 108.278 215.981 105.684C216.82 103.968 217.7 102.211 217.909 101.835C218.119 101.416 218.286 100.872 218.286 100.621C218.286 100.37 218.538 99.5753 218.873 98.8641C220.466 95.3497 221.388 87.7771 221.052 80.832C220.927 78.0707 220.633 75.2675 220.382 74.5563C220.172 73.845 219.711 72.2133 219.292 70.9582C218.454 68.1132 217.322 65.603 215.73 63.009C214.347 60.7498 214.263 60.1222 215.101 58.2813C215.437 57.5282 215.772 56.566 215.856 56.1058C215.939 55.4363 216.359 55.2272 217.658 55.1435C221.01 54.9343 229.602 53.1353 231.907 52.1311C232.368 51.922 233.625 51.3781 234.715 50.9178C235.804 50.4158 236.894 50.0393 237.104 50.0393C237.355 50.0393 237.565 49.8301 237.565 49.6209C237.565 49.3698 237.816 49.2025 238.109 49.2025C238.654 49.2025 243.138 46.3994 244.48 45.1442C244.941 44.7258 246.282 43.5544 247.413 42.5084C248.587 41.5043 250.263 39.7053 251.185 38.5338C252.107 37.4042 253.071 36.1909 253.364 35.898C253.658 35.6052 253.909 35.0613 253.909 34.7266C253.909 34.3919 254.119 34.1408 254.328 34.1408C254.58 34.1408 254.747 33.9317 254.747 33.6388C254.747 33.3878 254.999 32.8439 255.334 32.5092C255.627 32.1326 256.34 30.7101 256.885 29.3295C257.43 27.9488 257.974 26.61 258.142 26.4008C258.31 26.1498 258.561 25.313 258.729 24.5181C258.896 23.7232 259.19 22.8446 259.357 22.6354C259.651 22.217 260.531 16.6108 260.95 12.5943C261.411 7.78296 258.603 -4.26636 256.13 -8.19913C255.627 -9.07772 255.166 -9.95632 255.166 -10.1655C255.166 -10.3747 254.915 -10.8349 254.664 -11.1278C254.37 -11.4206 253.574 -12.5084 252.861 -13.5125C250.179 -17.4453 242.929 -23.5118 239.953 -24.223C239.325 -24.3904 238.696 -24.6833 238.57 -24.8925C238.445 -25.1016 238.026 -25.269 237.648 -25.269C237.271 -25.269 236.391 -25.6037 235.679 -25.9802C233.751 -27.0262 221.513 -27.0262 218.161 -25.9384C213.76 -24.5578 208.982 -21.7546 205.63 -18.6168C204.414 -17.4453 203.241 -16.5249 202.989 -16.5249C202.78 -16.483 201.816 -17.1524 200.894 -17.9474C197.583 -20.876 197.08 -21.2526 195.027 -22.5077C191.548 -24.6833 188.866 -25.3527 184.549 -25.1435C180.903 -24.9761 177.509 -24.3904 175.748 -23.5955C172.102 -21.9638 170.929 -21.5036 170.51 -21.5036C170.3 -21.5036 169.755 -21.3362 169.336 -21.127C167.911 -20.4576 165.606 -19.4117 160.661 -17.3198C159.53 -16.8177 158.189 -16.2738 157.728 -16.0647C154.04 -14.433 152.866 -13.9728 152.321 -13.9728C151.944 -13.9728 151.651 -13.8054 151.651 -13.5544C151.651 -13.3452 151.399 -13.136 151.148 -13.136C150.854 -13.136 149.471 -12.6758 148.088 -12.0901C146.705 -11.5462 145.364 -11.0441 145.113 -11.0441C144.82 -11.0441 144.484 -11.7554 144.317 -12.6339C143.52 -17.1943 140.922 -22.0475 137.569 -25.4363C134.719 -28.3232 133.294 -29.4528 132.498 -29.4528C132.205 -29.4528 131.953 -29.662 131.953 -29.8712C131.953 -30.1222 131.744 -30.2895 131.492 -30.2895C131.241 -30.2895 130.445 -30.5406 129.732 -30.8334C125.709 -32.5488 124.033 -32.7998 116.615 -32.9672C112.466 -33.0508 106.934 -32.9672 104.293 -32.7998ZM41.4295 -5.31231C44.2794 -4.14085 45.7043 -3.30409 47.0035 -1.92344C47.9255 -0.961166 48.0931 -0.50095 47.7997 0.0847816C46.7101 2.30219 46.0395 3.93387 45.7881 5.06349C45.6205 5.7329 45.369 6.48598 45.2014 6.73701C45.0337 6.9462 44.7404 7.86664 44.6146 8.78707C44.447 9.66567 44.1536 10.7116 43.9441 11.0882C43.0221 12.8035 41.8486 21.5895 41.8486 26.6937C41.8486 31.0867 41.7229 32.049 41.2619 32.049C40.9266 32.049 40.5075 31.8398 40.3818 31.6306C40.2561 31.3795 39.6274 31.2122 38.9988 31.2122C38.3702 31.1703 37.1129 30.8357 36.1909 30.3754C35.2689 29.9152 34.305 29.5805 34.0116 29.5387C33.7602 29.5387 33.4668 29.4132 33.383 29.204C33.3411 29.0366 32.5448 28.5764 31.7066 28.1162C28.773 26.6519 23.4086 20.3343 23.4086 18.368C23.4086 17.9496 23.1571 17.322 22.9057 17.071C22.5285 16.6944 22.3609 14.8954 22.3609 11.13C22.3609 7.36458 22.5285 5.56555 22.9057 5.18901C23.1571 4.93798 23.4086 4.26857 23.4086 3.76652C23.4086 1.84197 29.6531 -5.1868 31.3294 -5.1868C31.7066 -5.1868 32.2095 -5.35415 32.461 -5.56334C33.5506 -6.65112 38.454 -6.48377 41.4295 -5.31231ZM228.135 -5.64701C229.728 -5.06128 231.194 -4.09901 232.871 -2.50917C234.924 -0.50095 235.679 0.544998 237.648 4.5196C238.822 6.98804 238.822 15.2719 237.606 17.7404C237.439 18.1169 236.894 19.2047 236.475 20.1251C235.008 23.1375 230.817 27.1121 227.003 29.0366C225.076 30.0407 222.813 30.9193 221.932 31.0867C221.052 31.2122 220.256 31.5051 220.13 31.6724C220.005 31.8816 219.627 32.049 219.292 32.049C218.831 32.049 218.705 31.1285 218.664 27.3213C218.664 21.2966 217.49 12.3433 216.526 10.879C216.359 10.6279 216.107 9.62383 215.939 8.66155C215.772 7.69928 215.478 6.82069 215.311 6.69517C215.101 6.56966 214.934 6.19312 214.934 5.85841C214.934 5.27268 213.676 2.093 212.838 0.586838C212 -0.877491 212.587 -1.71425 215.772 -3.68063C219.963 -6.31642 224.279 -6.98583 228.135 -5.64701ZM107.73 -1.50506C110.789 -0.961166 116.908 1.33992 119.423 2.84608C120.47 3.47365 121.56 4.01755 121.853 4.01755C122.105 4.01755 122.314 4.1849 122.314 4.43592C122.314 4.64511 122.524 4.85431 122.775 4.85431C123.027 4.85431 123.655 5.18901 124.2 5.56555C124.703 5.98393 125.583 6.6115 126.086 6.9462C126.589 7.2809 127.595 8.07582 128.349 8.70339C129.565 9.79118 131.534 10.2932 131.534 9.54015C131.534 9.33096 132.624 8.45237 133.965 7.53193C135.264 6.65334 136.438 5.81657 136.563 5.69106C137.569 4.56144 147.125 -0.166245 148.382 -0.166245C148.717 -0.166245 149.136 -0.333599 149.388 -0.584625C151.232 -2.42549 168.121 -2.42549 171.977 -0.584625C172.438 -0.375435 173.821 0.168457 174.994 0.628674C177.802 1.71646 181.658 4.35225 184.13 6.86252C186.226 8.95442 189.369 13.4729 189.369 14.3515C189.369 14.6444 189.537 14.8954 189.746 14.8954C189.956 14.8954 190.291 15.523 190.417 16.2342C190.584 16.9873 190.878 17.7822 191.045 18.0332C191.506 18.619 192.303 22.0497 192.806 25.6896C193.392 29.6642 192.47 36.2746 190.752 40.8349C189.956 42.885 187.735 47.1943 187.315 47.529C187.148 47.6545 186.561 48.4913 186.016 49.4117C185.471 50.3321 184.759 51.3362 184.466 51.6291C184.172 51.922 183.921 52.3822 183.921 52.6332C183.921 52.8842 183.627 53.3026 183.25 53.5955C182.37 54.223 182.789 55.7292 184.047 56.3986C185.597 57.1935 189.746 61.4192 191.213 63.6366C193.56 67.1928 194.524 69.201 195.907 73.4685C196.787 76.2298 197.206 85.0576 196.577 87.7771C195.488 92.17 195.152 93.3415 194.859 93.7599C194.65 93.9691 194.356 94.6385 194.189 95.2242C193.686 96.8559 190.501 101.5 188.237 103.801C185.178 106.939 181.322 109.867 177.76 111.792C177.257 112.085 176.293 112.587 175.665 112.963C175.036 113.298 173.569 114.009 172.396 114.47C171.264 114.972 169.714 115.641 168.959 115.976C168.247 116.311 167.45 116.562 167.199 116.562C166.948 116.562 166.403 116.729 165.984 116.938C165.104 117.44 161.374 118.57 159.069 119.072C158.105 119.281 156.009 119.741 154.375 120.118C152.782 120.494 149.639 120.955 147.46 121.206C145.281 121.457 142.556 121.833 141.383 122.042C136.983 122.921 113.346 121.959 109.532 120.745C108.861 120.536 107.143 120.16 105.76 119.909C99.5995 118.821 98.5937 118.57 98.2165 118.193C98.007 117.984 97.4621 117.817 97.043 117.817C96.624 117.817 95.66 117.566 94.9476 117.231C94.1932 116.938 92.6845 116.352 91.511 115.934C86.9429 114.344 80.0279 110.704 77.8905 108.738C77.3038 108.194 76.7171 107.776 76.5494 107.776C76.0046 107.776 71.0174 102.588 69.7182 100.663C69.0477 99.6172 68.3771 98.6967 68.2514 98.5712C68.0419 98.362 66.9941 96.2702 65.9883 93.9691C65.4016 92.5884 64.8987 90.8731 64.0605 87.0658C63.5576 84.8902 63.5576 79.2003 64.0605 77.0247C65.4016 70.9164 66.617 67.8622 69.2992 63.8458C70.7241 61.6702 75.9208 56.3149 76.6333 56.3149C76.8847 56.3149 77.2619 55.8547 77.5134 55.3108C77.8905 54.4741 77.8067 54.0557 77.0104 52.9261C76.4656 52.1311 75.8789 51.4199 75.7532 51.2944C75.2503 50.8342 72.4423 45.9391 72.4423 45.4789C72.4423 45.2279 72.2747 45.0187 72.0232 45.0187C71.8137 45.0187 71.6042 44.7677 71.6042 44.4748C71.5622 44.2238 71.227 43.2197 70.766 42.2992C70.305 41.3788 69.9697 40.3329 69.9278 39.9982C69.9278 39.6216 69.7602 39.1614 69.5506 38.9522C67.7066 37.1113 67.7066 20.2925 69.5506 18.4516C69.7602 18.2424 69.9278 17.8241 69.9278 17.4894C69.9278 17.1965 70.3469 16.0669 70.8079 14.9791C73.532 8.95441 79.8603 2.80424 85.5599 0.628674C86.7334 0.168457 88.1164 -0.375435 88.5774 -0.584625C89.0384 -0.793816 90.6309 -1.17036 92.0978 -1.37955C93.5646 -1.63058 94.8638 -1.92344 95.0314 -2.04895C95.3667 -2.42549 104.964 -2.00711 107.73 -1.50506Z" fill="#1E1E1E" style="mix-blend-mode:soft-light"/>
<path d="M96.1211 21.966C95.1991 22.3844 93.9837 23.2211 93.3969 23.8069C90.589 26.6519 90.0442 28.4927 90.0442 35.3541C90.0442 43.6799 91.4691 47.1943 95.6181 49.2025C99.851 51.2525 104.712 49.4117 107.185 44.8095C107.981 43.3033 108.065 42.5084 108.065 35.6888C108.065 27.4468 107.856 26.61 105.467 24.1416C102.701 21.2966 99.3481 20.5435 96.1211 21.966Z" fill="#1E1E1E" style="mix-blend-mode:soft-light"/>
<path d="M159.446 21.5476C159.32 21.7568 158.733 22.0497 158.147 22.1752C156.764 22.5517 155.171 23.9324 153.788 25.9824C152.698 27.6559 152.698 27.6978 152.698 35.8143V43.9727L153.956 45.7299C154.668 46.6922 156.093 48.031 157.183 48.7423C161.499 51.5872 167.199 49.6209 169.714 44.433C170.384 43.0105 170.51 41.7972 170.51 35.8143C170.51 28.409 170.342 27.6141 168.205 24.6855C166.948 23.0119 163.343 21.1711 161.29 21.1711C160.368 21.1711 159.572 21.3384 159.446 21.5476Z" fill="#1E1E1E" style="mix-blend-mode:soft-light"/>
<path d="M169.797 73.4267C169.085 73.8032 168.037 74.4726 167.492 74.9328C164.391 77.6104 158.398 81.4177 154.584 83.1749C151.483 84.5974 150.016 85.1831 149.471 85.1831C149.136 85.1831 148.717 85.3504 148.466 85.5596C148.088 85.978 146.496 86.4382 142.64 87.275C141.509 87.526 140 87.9444 139.288 88.1536C136.522 89.074 125.248 89.4924 117.327 88.9904C113.094 88.7393 109.322 88.3628 108.945 88.1536C108.568 87.9444 107.185 87.6515 105.886 87.526C104.545 87.3587 103.371 87.024 103.246 86.8148C103.078 86.6056 102.575 86.4382 102.072 86.4382C101.569 86.4382 100.605 86.1454 99.9348 85.8107C99.3061 85.476 98.5518 85.1831 98.3422 85.1831C98.0908 85.1831 97.3364 84.9321 96.624 84.5974C95.8696 84.2627 94.3609 83.7188 93.2712 83.3422C91.4272 82.7565 91.1758 82.7565 89.4994 83.5096C88.5355 83.928 87.362 84.8066 86.901 85.476C85.8114 87.024 85.8114 90.0781 86.9429 91.5843C87.6973 92.6302 95.4505 96.8977 96.624 96.8977C96.9173 96.8977 97.5041 97.0651 97.9231 97.3161C99.0966 97.9437 106.431 99.408 112.885 100.245C116.657 100.747 130.906 100.747 134.678 100.245C140.587 99.4498 148.885 97.8181 149.765 97.2324C150.016 97.1069 150.896 96.8559 151.776 96.6885C152.615 96.5212 153.453 96.2283 153.579 96.0191C153.704 95.8099 154.081 95.6426 154.417 95.6426C155.087 95.6426 157.811 94.513 160.871 92.965C165.02 90.8312 166.529 90.0363 166.738 89.7853C166.864 89.6179 168.205 88.7812 169.756 87.8607C173.192 85.8107 176.671 82.882 177.467 81.334C178.976 78.4472 177.215 74.7655 173.611 73.2593C171.809 72.5062 171.516 72.5062 169.797 73.4267Z" fill="#1E1E1E" style="mix-blend-mode:soft-light"/>
</svg>
