<svg width="25" height="24" viewBox="0 0 25 24" fill="none" xmlns="http://www.w3.org/2000/svg">
<path d="M12.125 19C12.194 19 12.25 19.056 12.25 19.125C12.25 19.194 12.194 19.25 12.125 19.25C12.056 19.25 12 19.194 12 19.125C12 19.056 12.056 19 12.125 19Z" fill="#343330" stroke="#1E1E1E" stroke-width="2"/>
<path d="M21.875 8.73656C19.1259 6.48192 15.6804 5.24971 12.125 5.24971C8.5696 5.24971 5.12408 6.48192 2.375 8.73656" stroke="#1E1E1E" stroke-width="2" stroke-linecap="round" stroke-linejoin="round"/>
<path d="M18.875 12.0937C16.9538 10.5729 14.5753 9.74536 12.125 9.74536C9.67469 9.74536 7.29618 10.5729 5.375 12.0937" stroke="#1E1E1E" stroke-width="2" stroke-linecap="round" stroke-linejoin="round"/>
<path d="M15.875 15.4687C14.7853 14.6761 13.4725 14.2491 12.125 14.2491C10.7775 14.2491 9.46469 14.6761 8.375 15.4687" stroke="#343330" stroke-width="2" stroke-linecap="round" stroke-linejoin="round"/>
</svg>
