<svg width="37" height="36" viewBox="0 0 37 36" fill="none" xmlns="http://www.w3.org/2000/svg">
<path d="M32 6.75H5C4.40326 6.75 3.83097 6.98705 3.40901 7.40901C2.98705 7.83097 2.75 8.40326 2.75 9V27C2.75 27.5967 2.98705 28.169 3.40901 28.591C3.83097 29.0129 4.40326 29.25 5 29.25H32C32.5967 29.25 33.169 29.0129 33.591 28.591C34.0129 28.169 34.25 27.5967 34.25 27V9C34.25 8.40326 34.0129 7.83097 33.591 7.40901C33.169 6.98705 32.5967 6.75 32 6.75ZM19.625 24.75H17.375C17.0766 24.75 16.7905 24.6315 16.5795 24.4205C16.3685 24.2095 16.25 23.9234 16.25 23.625C16.25 23.3266 16.3685 23.0405 16.5795 22.8295C16.7905 22.6185 17.0766 22.5 17.375 22.5H19.625C19.9234 22.5 20.2095 22.6185 20.4205 22.8295C20.6315 23.0405 20.75 23.3266 20.75 23.625C20.75 23.9234 20.6315 24.2095 20.4205 24.4205C20.2095 24.6315 19.9234 24.75 19.625 24.75ZM28.625 24.75H24.125C23.8266 24.75 23.5405 24.6315 23.3295 24.4205C23.1185 24.2095 23 23.9234 23 23.625C23 23.3266 23.1185 23.0405 23.3295 22.8295C23.5405 22.6185 23.8266 22.5 24.125 22.5H28.625C28.9234 22.5 29.2095 22.6185 29.4205 22.8295C29.6315 23.0405 29.75 23.3266 29.75 23.625C29.75 23.9234 29.6315 24.2095 29.4205 24.4205C29.2095 24.6315 28.9234 24.75 28.625 24.75ZM5 12.375V9H32V12.375H5Z" fill="#FFBB03"/>
</svg>
