<svg width="36" height="36" viewBox="0 0 36 36" fill="none" xmlns="http://www.w3.org/2000/svg">
<path d="M34.875 29.25C34.875 29.5484 34.7565 29.8345 34.5455 30.0455C34.3345 30.2565 34.0484 30.375 33.75 30.375H2.25C1.95163 30.375 1.66548 30.2565 1.4545 30.0455C1.24353 29.8345 1.125 29.5484 1.125 29.25C1.125 28.9516 1.24353 28.6655 1.4545 28.4545C1.66548 28.2435 1.95163 28.125 2.25 28.125H33.75C34.0484 28.125 34.3345 28.2435 34.5455 28.4545C34.7565 28.6655 34.875 28.9516 34.875 29.25ZM2.29219 13.8066C2.22527 13.5706 2.23728 13.3193 2.32639 13.0908C2.41549 12.8624 2.57681 12.6693 2.78578 12.5409L17.4108 3.54094C17.588 3.43198 17.792 3.37429 18 3.37429C18.208 3.37429 18.412 3.43198 18.5892 3.54094L33.2142 12.5409C33.4233 12.6691 33.5847 12.8621 33.674 13.0904C33.7632 13.3188 33.7754 13.5701 33.7087 13.8061C33.642 14.042 33.5 14.2497 33.3044 14.3976C33.1088 14.5454 32.8702 14.6253 32.625 14.625H29.25V23.625H31.5C31.7984 23.625 32.0845 23.7435 32.2955 23.9545C32.5065 24.1655 32.625 24.4516 32.625 24.75C32.625 25.0484 32.5065 25.3345 32.2955 25.5455C32.0845 25.7565 31.7984 25.875 31.5 25.875H4.5C4.20163 25.875 3.91548 25.7565 3.7045 25.5455C3.49353 25.3345 3.375 25.0484 3.375 24.75C3.375 24.4516 3.49353 24.1655 3.7045 23.9545C3.91548 23.7435 4.20163 23.625 4.5 23.625H6.75V14.625H3.375C3.13002 14.6251 2.8917 14.5452 2.69626 14.3975C2.50082 14.2498 2.35895 14.0423 2.29219 13.8066ZM20.25 22.5C20.25 22.7984 20.3685 23.0845 20.5795 23.2955C20.7905 23.5065 21.0766 23.625 21.375 23.625C21.6734 23.625 21.9595 23.5065 22.1705 23.2955C22.3815 23.0845 22.5 22.7984 22.5 22.5V15.75C22.5 15.4516 22.3815 15.1655 22.1705 14.9545C21.9595 14.7435 21.6734 14.625 21.375 14.625C21.0766 14.625 20.7905 14.7435 20.5795 14.9545C20.3685 15.1655 20.25 15.4516 20.25 15.75V22.5ZM13.5 22.5C13.5 22.7984 13.6185 23.0845 13.8295 23.2955C14.0405 23.5065 14.3266 23.625 14.625 23.625C14.9234 23.625 15.2095 23.5065 15.4205 23.2955C15.6315 23.0845 15.75 22.7984 15.75 22.5V15.75C15.75 15.4516 15.6315 15.1655 15.4205 14.9545C15.2095 14.7435 14.9234 14.625 14.625 14.625C14.3266 14.625 14.0405 14.7435 13.8295 14.9545C13.6185 15.1655 13.5 15.4516 13.5 15.75V22.5Z" fill="#FFBB03"/>
</svg>
